<?xml version="1.0" encoding="utf-8"?>
<!-- Generator: Adobe Illustrator 21.0.2, SVG Export Plug-In . SVG Version: 6.00 Build 0)  -->
<svg version="1.1" id="Layer_1" xmlns="http://www.w3.org/2000/svg" xmlns:xlink="http://www.w3.org/1999/xlink" x="0px" y="0px"
	 viewBox="0 0 749.5 187" style="enable-background:new 0 0 749.5 187;" xml:space="preserve">
<style type="text/css">
	.st0{fill:#486C86;}
	.st1{fill:#FFFFFF;}
	.st2{fill:#6FA9B1;}
</style>
<polygon class="st0" points="90.5,168.4 51.5,138.2 29.1,143.6 27.7,144 25.7,146.5 26.8,150.9 65.9,182.6 77.7,184.2 79.1,183.6 
	88.5,179.7 "/>
<g>
	<path class="st1" d="M437.6,186.4v-14.3c0-3.7-1.5-5.5-4.4-5.5c-1.4,0-2.5,0.5-3.4,1.5c-0.9,1-1.4,2.4-1.4,4.3v14h-4.8v-14.3
		c0-3.7-1.5-5.5-4.4-5.5c-1.4,0-2.5,0.5-3.4,1.5c-0.9,1-1.4,2.4-1.4,4.3v14h-4.8v-23.8h4.8v2.2c1.3-1.8,3.3-2.8,6-2.8
		c3,0,5.1,1.1,6.3,3.4c1.5-2.3,3.8-3.4,7-3.4c2.6,0,4.7,0.7,6.2,2.2c1.6,1.5,2.4,3.7,2.4,6.8v15.4H437.6z"/>
	<path class="st1" d="M459.8,187c-3.3,0-6-1.1-7.9-3.3c-1.9-2.2-2.9-5.3-2.9-9.2c0-3.9,1-6.9,2.9-9.1c2-2.2,4.6-3.3,7.9-3.3
		c3,0,5.4,0.9,7.4,2.8c1.9,1.9,2.9,4.7,2.9,8.3c0,1.3-0.1,2.4-0.2,3.1h-16c0,1.9,0.6,3.4,1.8,4.6c1.2,1.2,2.6,1.8,4.2,1.8
		c2.1,0,3.7-0.8,4.9-2.4l3.2,3.3C466,185.9,463.3,187,459.8,187z M453.8,172.4h11.4c0-2.1-0.6-3.6-1.6-4.6c-1.1-1-2.3-1.5-3.8-1.5
		c-1.6,0-3,0.5-4.1,1.5C454.6,168.8,454,170.3,453.8,172.4z"/>
	<path class="st1" d="M476.6,186.4v-23.8h4.8v2.9c1.1-2.3,2.8-3.5,5.3-3.5c1.6,0,2.9,0.5,4,1.4l-0.7,4.5c-1.2-0.8-2.4-1.2-3.8-1.2
		c-1.3,0-2.4,0.5-3.4,1.5c-1,1-1.4,2.6-1.4,4.8v13.4H476.6z"/>
	<path class="st1" d="M517.8,187c-3.3,0-6-1.1-7.9-3.3c-1.9-2.2-2.9-5.3-2.9-9.2c0-3.9,1-6.9,2.9-9.1c2-2.2,4.6-3.3,7.9-3.3
		c3,0,5.4,0.9,7.4,2.8c1.9,1.9,2.9,4.7,2.9,8.3c0,1.3-0.1,2.4-0.2,3.1h-16c0,1.9,0.6,3.4,1.8,4.6c1.2,1.2,2.6,1.8,4.2,1.8
		c2.1,0,3.7-0.8,4.9-2.4l3.2,3.3C524.1,185.9,521.3,187,517.8,187z M511.9,172.4h11.4c0-2.1-0.6-3.6-1.6-4.6c-1.1-1-2.3-1.5-3.8-1.5
		c-1.6,0-3,0.5-4.1,1.5C512.6,168.8,512,170.3,511.9,172.4z"/>
	<path class="st1" d="M549.3,186.4v-14.2c0-1.9-0.4-3.3-1.3-4.2c-0.9-0.9-2-1.4-3.5-1.4c-3.4,0-5.1,1.8-5.1,5.5v14.3h-4.8v-23.8h4.8
		v2.3c1.5-1.9,3.5-2.8,6.2-2.8c5.7,0,8.6,3.4,8.6,10.2v14.2H549.3z"/>
	<path class="st1" d="M576.6,186.4v-14.2c0-1.9-0.4-3.3-1.3-4.2c-0.9-0.9-2-1.4-3.5-1.4c-3.4,0-5.1,1.8-5.1,5.5v14.3h-4.8v-23.8h4.8
		v2.3c1.5-1.9,3.5-2.8,6.2-2.8c5.7,0,8.6,3.4,8.6,10.2v14.2H576.6z"/>
	<path class="st1" d="M601.5,186.4v-31.4l4.9-2.3v33.7H601.5z"/>
	<path class="st1" d="M624.2,187c-3.3,0-6-1.1-7.9-3.3c-1.9-2.2-2.9-5.3-2.9-9.2c0-3.9,1-6.9,2.9-9.1c2-2.2,4.6-3.3,7.9-3.3
		c3,0,5.4,0.9,7.4,2.8c1.9,1.9,2.9,4.7,2.9,8.3c0,1.3-0.1,2.4-0.2,3.1h-16c0,1.9,0.6,3.4,1.8,4.6c1.2,1.2,2.6,1.8,4.2,1.8
		c2.1,0,3.7-0.8,4.9-2.4l3.2,3.3C630.4,185.9,627.7,187,624.2,187z M618.2,172.4h11.4c0-2.1-0.6-3.6-1.6-4.6c-1.1-1-2.3-1.5-3.8-1.5
		c-1.6,0-3,0.5-4.1,1.5C619,168.8,618.3,170.3,618.2,172.4z"/>
	<path class="st1" d="M647.4,186.4l-8.7-23.8h4.9l5.5,15.6c0.3,1,0.6,1.7,0.7,2.1c0.1-0.4,0.3-1.1,0.7-2.1l5.5-15.6h4.8l-8.7,23.8
		H647.4z"/>
	<path class="st1" d="M675.9,187c-3.3,0-6-1.1-7.9-3.3c-1.9-2.2-2.9-5.3-2.9-9.2c0-3.9,1-6.9,2.9-9.1c2-2.2,4.6-3.3,7.9-3.3
		c3,0,5.4,0.9,7.4,2.8c1.9,1.9,2.9,4.7,2.9,8.3c0,1.3-0.1,2.4-0.2,3.1h-16c0,1.9,0.6,3.4,1.8,4.6c1.2,1.2,2.6,1.8,4.2,1.8
		c2.1,0,3.7-0.8,4.9-2.4l3.2,3.3C682.1,185.9,679.4,187,675.9,187z M669.9,172.4h11.4c0-2.1-0.6-3.6-1.6-4.6c-1.1-1-2.3-1.5-3.8-1.5
		c-1.6,0-3,0.5-4.1,1.5C670.6,168.8,670,170.3,669.9,172.4z"/>
	<path class="st1" d="M692.6,186.4v-23.8h4.8v2.9c1.1-2.3,2.8-3.5,5.3-3.5c1.6,0,2.9,0.5,4,1.4l-0.7,4.5c-1.2-0.8-2.4-1.2-3.8-1.2
		c-1.3,0-2.4,0.5-3.4,1.5c-1,1-1.4,2.6-1.4,4.8v13.4H692.6z"/>
	<path class="st1" d="M719.7,187c-3.5,0-5.3-2-5.3-5.9v-14.3h-3.7v-4.2h3.7v-7.5l4.8-2.3v9.8h5.6v4.2h-5.6v13c0,1.8,0.8,2.7,2.3,2.7
		c1.1,0,2.3-0.4,3.5-1.1l-0.6,4.5C723.1,186.6,721.5,187,719.7,187z"/>
</g>
<polygon class="st1" points="123.6,80.8 177.5,50 177.5,50 88.1,0 0,50 51.3,80.8 75.2,73.8 87.5,80.6 99.7,73.8 "/>
<polygon class="st2" points="92.7,101.9 82.9,106.2 74.9,119 65.2,123.9 55.4,118.1 62.7,94.3 87.5,80.6 87.5,80.6 75.2,73.8 
	51.3,80.8 0,50 0,50 0,120.4 29.1,143.6 51.5,138.2 90.5,168.4 88.5,179.7 79.1,183.6 82.6,186.4 104.2,186.4 148.1,150.9 
	149.3,146.5 144.1,141.9 "/>
<polygon class="st0" points="177.5,50 123.6,80.8 99.7,73.8 87.5,80.6 62.7,94.3 55.4,118.1 65.2,123.9 74.9,119 82.9,106.2 
	92.7,101.9 144.1,141.9 149.3,146.5 177.5,121.7 177.5,50 "/>
<path class="st1" d="M252.9,102.3c5.9,0,10.6-2.5,13.2-5.9l12.3,7.1c-5.5,8-14.4,12.6-25.7,12.6c-19.8,0-32.3-13.5-32.3-31.1
	s12.6-31.1,31.1-31.1c17.4,0,29.8,13.8,29.8,31.1c0,2.2-0.2,4.2-0.6,6.2h-44.4C238.4,99,244.9,102.3,252.9,102.3z M266.1,79.4
	c-1.9-8.5-8.2-11.9-14.6-11.9c-8.1,0-13.7,4.4-15.4,11.9H266.1z"/>
<path class="st1" d="M351.4,55.5v58.9h-15.2v-6.9c-4.2,5.3-10.6,8.6-19.2,8.6c-15.7,0-28.6-13.5-28.6-31.1s13-31.1,28.6-31.1
	c8.6,0,15,3.3,19.2,8.6v-6.9H351.4z M336.2,85c0-9.9-6.9-16.6-16.4-16.6c-9.3,0-16.3,6.7-16.3,16.6s6.9,16.6,16.3,16.6
	C329.2,101.6,336.2,94.9,336.2,85z"/>
<path class="st1" d="M409.1,97.2c0,12.7-11.1,18.8-23.7,18.8c-11.8,0-20.5-4.9-24.7-14l13.2-7.4c1.6,4.8,5.7,7.7,11.5,7.7
	c4.8,0,8.1-1.6,8.1-5.1c0-8.6-30.4-3.9-30.4-24.6c0-12,10.2-18.7,22.4-18.7c9.5,0,17.8,4.4,22.4,12.5l-13,7.1c-1.8-3.8-5.1-6-9.4-6
	c-3.8,0-6.8,1.6-6.8,4.8C378.7,81,409.1,75.6,409.1,97.2z"/>
<path class="st1" d="M596.8,84.8c0-17.7,13.9-31.4,31.4-31.4c17.5,0,31.5,13.7,31.5,31.4c0,17.7-14,31.4-31.5,31.4
	C610.7,116.2,596.8,102.5,596.8,84.8z M644.3,84.8c0-9.6-7-16.4-16.2-16.4c-9,0-16.1,6.8-16.1,16.4c0,9.6,7,16.4,16.1,16.4
	C637.3,101.2,644.3,94.4,644.3,84.8z"/>
<path class="st1" d="M725.1,55.1v59.4h-15.3v-6.7c-3.6,5.4-9.7,8.3-17.7,8.3c-12.6,0-22.5-8.8-22.5-24.6V55.1h15.3v34.6
	c0,8.1,4.9,12.2,11.8,12.2c7.5,0,13.1-4.4,13.1-14.7V55.1H725.1z"/>
<path class="st1" d="M471.5,55.1l-21.6,59.4c-6.2,17.1-16.3,24.2-31.4,23.8c-1.6,0-6.6,0-6.6,0L412,124l6.4,0.1
	c8.4,0.1,12.7-3.4,15.6-11.4l-24.4-57.5h16.8L441.9,95l13.2-39.9H471.5z"/>
<path class="st2" d="M479.1,123.7c0,0,7.4-8.2,11-11.9c9.3-9.5,18.8-18.9,27.4-29c8.8-10.4,12.5-22.7,8.6-36.4
	c-3.8-13.6-16.7-23.6-31.3-24.4c-16.9-1-32,8.5-38.5,26.9h16.8c1.3-2,1.7-2.7,2.8-4.2c7.4-9.9,18-11.1,27.7-4.8
	c9.4,6.1,9.9,18.8,2.8,30c-2.9,4.7-6.1,9.5-10,13.5c-12.3,12.8-23.1,25.6-36,37.9c-5.6,5.3-4.8,10.9-4.2,17.2c24.6,0,48.8,0,73,0
	c0-5,0-9.6,0-14.8C512.4,123.7,479.1,123.7,479.1,123.7z"/>
<path class="st1" d="M578.5,55.1L565.3,95l-15.5-39.9h-16.8l24.4,57.5c-2.8,8-7.1,11.5-15.6,11.4l-6.4-0.1l0,0.4v13.9
	c0,0,4.8-0.1,6.4,0c15.1,0.4,25.2-6.7,31.4-23.8L595,55.1H578.5z"/>
<g>
	<path class="st1" d="M734.7,56.8v9h-1.9v-9h-3.1V55h8v1.8H734.7z"/>
	<path class="st1" d="M749.5,65.8h-1.9v-5.7c0-0.5,0-0.9,0.1-1.3c-0.1,0.4-0.3,0.8-0.5,1.3l-2.6,5.9l-2.6-5.9
		c-0.2-0.4-0.4-0.8-0.5-1.3c0,0.4,0.1,0.8,0.1,1.3v5.7h-1.9V55h1.9l2.8,6.3c0.1,0.3,0.2,0.6,0.3,0.8c0.1-0.2,0.2-0.5,0.3-0.8
		l2.8-6.3h1.8V65.8z"/>
</g>
</svg>
